<?xml version="1.0" encoding="utf-8"?>
<!-- Generator: Adobe Illustrator 16.0.0, SVG Export Plug-In . SVG Version: 6.00 Build 0)  -->
<!DOCTYPE svg PUBLIC "-//W3C//DTD SVG 1.1//EN" "http://www.w3.org/Graphics/SVG/1.1/DTD/svg11.dtd">
<svg version="1.1" id="Layer_1" xmlns="http://www.w3.org/2000/svg" xmlns:xlink="http://www.w3.org/1999/xlink" x="0px" y="0px"
	 width="200px" height="200px" viewBox="0 0 200 200" enable-background="new 0 0 200 200" xml:space="preserve">
<polygon fill="#7A7A7A" stroke="#7A7A7A" stroke-width="0.25" stroke-miterlimit="10" points="102.026,48.59 78.859,35.214 
	102.026,21.839 "/>
<polygon fill="#7A7A7A" stroke="#7A7A7A" stroke-width="0.25" stroke-miterlimit="10" points="78.859,61.965 55.692,48.589 
	78.859,35.214 "/>
<polygon fill="#1B273A" stroke="#12233F" stroke-width="0.25" stroke-miterlimit="10" points="102.026,75.341 78.859,61.965 
	102.026,48.59 "/>
<polygon fill="#7A7A7A" stroke="#7A7A7A" stroke-width="0.25" stroke-miterlimit="10" points="78.859,88.716 55.692,75.341 
	78.859,61.965 "/>
<polygon fill="#304F88" stroke="#304F88" stroke-width="0.25" stroke-miterlimit="10" points="78.859,61.965 102.026,75.341 
	78.859,88.716 "/>
<polygon fill="#7A7A7A" stroke="#7A7A7A" stroke-width="0.25" stroke-miterlimit="10" points="55.692,48.59 78.859,61.965 
	55.692,75.341 "/>
<polygon fill="#7A7A7A" stroke="#7A7A7A" stroke-width="0.25" stroke-miterlimit="10" points="78.859,35.214 102.026,48.59 
	78.859,61.965 "/>
<polygon fill="#253653" stroke="#253652" stroke-width="0.25" stroke-miterlimit="10" points="102.026,102.092 78.859,88.717 
	102.026,75.341 "/>
<polygon fill="#7A7A7A" stroke="#7A7A7A" stroke-width="0.25" stroke-miterlimit="10" points="55.692,75.341 32.525,61.965 
	55.692,48.59 "/>
<polygon fill="#9D9D9D" stroke="#9D9D9D" stroke-width="0.25" stroke-miterlimit="10" points="171.528,88.717 148.361,75.341 
	171.528,61.965 "/>
<polygon fill="#9D9D9D" stroke="#9D9D9D" stroke-width="0.25" stroke-miterlimit="10" points="148.361,102.092 125.193,88.716 
	148.361,75.341 "/>
<polygon fill="#9D9D9D" stroke="#9D9D9D" stroke-width="0.25" stroke-miterlimit="10" points="171.528,115.468 148.361,102.092 
	171.528,88.717 "/>
<polygon fill="#9D9D9D" stroke="#9D9D9D" stroke-width="0.25" stroke-miterlimit="10" points="148.361,128.843 125.193,115.468 
	148.361,102.092 "/>
<polygon fill="#9D9D9D" stroke="#9D9D9D" stroke-width="0.25" stroke-miterlimit="10" points="148.361,102.092 171.528,115.468 
	148.361,128.843 "/>
<polygon fill="#9D9D9D" stroke="#9D9D9D" stroke-width="0.25" stroke-miterlimit="10" points="125.194,88.717 148.361,102.092 
	125.194,115.467 "/>
<polygon fill="#9D9D9D" stroke="#9D9D9D" stroke-width="0.25" stroke-miterlimit="10" points="148.361,75.341 171.528,88.717 
	148.361,102.092 "/>
<polygon fill="#9D9D9D" stroke="#9D9D9D" stroke-width="0.25" stroke-miterlimit="10" points="171.528,142.219 148.361,128.843 
	171.528,115.469 "/>
<polygon fill="#9D9D9D" stroke="#9D9D9D" stroke-width="0.25" stroke-miterlimit="10" points="125.193,115.468 102.026,102.092 
	125.193,88.717 "/>
<polygon fill="#1B273A" stroke="#152236" stroke-width="0.25" stroke-miterlimit="10" points="102.027,128.843 78.859,115.467 
	102.027,102.092 "/>
<polygon fill="#BCBCBC" stroke="#BCBCBC" stroke-width="0.25" stroke-miterlimit="10" points="78.859,142.219 55.692,128.843 
	78.859,115.469 "/>
<polygon fill="#253653" stroke="#253652" stroke-width="0.25" stroke-miterlimit="10" points="102.027,155.594 78.859,142.219 
	102.027,128.843 "/>
<polygon fill="#BCBCBC" stroke="#BCBCBC" stroke-width="0.25" stroke-miterlimit="10" points="78.859,168.97 55.692,155.594 
	78.859,142.219 "/>
<polygon fill="#BCBCBC" stroke="#BCBCBC" stroke-width="0.25" stroke-miterlimit="10" points="78.859,142.219 102.027,155.594 
	78.859,168.97 "/>
<polygon fill="#BCBCBC" stroke="#BCBCBC" stroke-width="0.25" stroke-miterlimit="10" points="55.693,128.843 78.859,142.219 
	55.693,155.594 "/>
<polygon fill="#304F88" stroke="#304F88" stroke-width="0.25" stroke-miterlimit="10" points="78.859,115.469 102.027,128.843 
	78.859,142.219 "/>
<polygon fill="#BCBCBC" stroke="#BCBCBC" stroke-width="0.25" stroke-miterlimit="10" points="102.027,182.346 78.859,168.971 
	102.027,155.595 "/>
<polygon fill="#BCBCBC" stroke="#BCBCBC" stroke-width="0.25" stroke-miterlimit="10" points="55.692,155.594 32.525,142.219 
	55.692,128.843 "/>
<polygon fill="#304F88" stroke="#304F88" stroke-width="0.25" stroke-miterlimit="10" points="102.026,75.341 125.193,88.717 
	102.026,102.092 "/>
<polygon fill="#7A7A7A" stroke="#7A7A7A" stroke-width="0.25" stroke-miterlimit="10" points="125.192,61.965 148.359,75.341 
	125.192,88.716 "/>
<polygon fill="#7A7A7A" stroke="#7A7A7A" stroke-width="0.25" stroke-miterlimit="10" points="102.026,48.59 125.193,61.965 
	102.026,75.341 "/>
<polygon fill="#7A7A7A" stroke="#7A7A7A" stroke-width="0.25" stroke-miterlimit="10" points="125.192,35.214 148.359,48.59 
	125.192,61.965 "/>
<polygon fill="#7A7A7A" stroke="#7A7A7A" stroke-width="0.25" stroke-miterlimit="10" points="125.192,61.965 102.025,48.59 
	125.192,35.214 "/>
<polygon fill="#7A7A7A" stroke="#7A7A7A" stroke-width="0.25" stroke-miterlimit="10" points="148.359,75.341 125.192,61.965 
	148.359,48.59 "/>
<polygon fill="#7A7A7A" stroke="#7A7A7A" stroke-width="0.25" stroke-miterlimit="10" points="125.192,88.716 102.025,75.341 
	125.192,61.965 "/>
<polygon fill="#7A7A7A" stroke="#7A7A7A" stroke-width="0.25" stroke-miterlimit="10" points="102.026,21.838 125.193,35.214 
	102.026,48.589 "/>
<polygon fill="#7A7A7A" stroke="#7A7A7A" stroke-width="0.25" stroke-miterlimit="10" points="148.359,48.59 171.527,61.965 
	148.359,75.341 "/>
<polygon fill="#9D9D9D" stroke="#9D9D9D" stroke-width="0.25" stroke-miterlimit="10" points="102.026,155.594 125.193,168.97 
	102.026,182.346 "/>
<polygon fill="#9D9D9D" stroke="#9D9D9D" stroke-width="0.25" stroke-miterlimit="10" points="125.193,142.219 148.36,155.594 
	125.193,168.97 "/>
<polygon fill="#304F88" stroke="#304F88" stroke-width="0.25" stroke-miterlimit="10" points="102.026,128.843 125.193,142.219 
	102.026,155.594 "/>
<polygon fill="#1B273A" stroke="#12233F" stroke-width="0.25" stroke-miterlimit="10" points="125.193,115.469 148.36,128.843 
	125.193,142.219 "/>
<polygon fill="#253653" stroke="#253652" stroke-width="0.25" stroke-miterlimit="10" points="125.193,142.219 102.026,128.843 
	125.193,115.469 "/>
<polygon fill="#9D9D9D" stroke="#9D9D9D" stroke-width="0.25" stroke-miterlimit="10" points="148.36,155.594 125.193,142.219 
	148.36,128.843 "/>
<polygon fill="#9D9D9D" stroke="#9D9D9D" stroke-width="0.25" stroke-miterlimit="10" points="125.193,168.97 102.026,155.594 
	125.193,142.219 "/>
<polygon fill="#9D9D9D" stroke="#9D9D9D" stroke-width="0.25" stroke-miterlimit="10" points="102.026,102.092 125.193,115.468 
	102.026,128.843 "/>
<polygon fill="#9D9D9D" stroke="#9D9D9D" stroke-width="0.25" stroke-miterlimit="10" points="148.36,128.843 171.528,142.219 
	148.36,155.594 "/>
<polygon fill="#BCBCBC" stroke="#BCBCBC" stroke-width="0.25" stroke-miterlimit="10" points="32.525,115.468 55.692,128.843 
	32.525,142.219 "/>
<polygon fill="#BCBCBC" stroke="#BCBCBC" stroke-width="0.25" stroke-miterlimit="10" points="55.692,102.092 78.859,115.468 
	55.692,128.843 "/>
<polygon fill="#BCBCBC" stroke="#BCBCBC" stroke-width="0.25" stroke-miterlimit="10" points="32.525,88.716 55.692,102.092 
	32.525,115.468 "/>
<polygon fill="#BCBCBC" stroke="#BCBCBC" stroke-width="0.25" stroke-miterlimit="10" points="55.692,75.341 78.859,88.716 
	55.692,102.092 "/>
<polygon fill="#BCBCBC" stroke="#BCBCBC" stroke-width="0.25" stroke-miterlimit="10" points="55.692,102.092 32.525,88.716 
	55.692,75.341 "/>
<polygon fill="#253653" stroke="#253652" stroke-width="0.25" stroke-miterlimit="10" points="78.859,115.468 55.692,102.092 
	78.859,88.717 "/>
<polygon fill="#BCBCBC" stroke="#BCBCBC" stroke-width="0.25" stroke-miterlimit="10" points="55.692,128.843 32.525,115.468 
	55.692,102.092 "/>
<polygon fill="#BCBCBC" stroke="#BCBCBC" stroke-width="0.25" stroke-miterlimit="10" points="32.525,61.965 55.692,75.341 
	32.525,88.716 "/>
<polygon fill="#304F88" stroke="#304F88" stroke-width="0.25" stroke-miterlimit="10" points="78.859,88.716 102.027,102.092 
	78.859,115.468 "/>
</svg>
